<svg id="Layer_1" version="1.1" viewBox="0 0 50 50" xml:space="preserve" xmlns="http://www.w3.org/2000/svg" enable-background="new 0 0 50 50"><path d="M39.59 42.67c0-9.61-7.64-17.65-17.25-17.75h-.22c-11.6 0-21 9.4-21 21 0 .59.04 1.17.09 1.75h38.38v-5z" fill="#e6ff00" class="fill-f2c6dd"></path><path d="M48.13 5.85c0-1.53-1.25-2.77-2.77-2.77H4.89a2.77 2.77 0 0 0-2.77 2.77v26.42h46V5.85z" fill="#ffffff" class="fill-ffffff"></path><path d="M2.13 32.27v3.62c0 1.52 1.24 2.77 2.77 2.77h40.46c1.52 0 2.77-1.25 2.77-2.77v-3.62h-46z" fill="#9cfaff" class="fill-ff9d9c"></path><path d="M5.82 6.77h38.62v25.5H5.82z" fill="#9beaf9" class="fill-9beaf9"></path><path d="M29.44 38.65h-10.5v5.62h12.37v-5.62z" fill="#f2ff00" class="fill-fde4a1"></path><path d="M22.74 37.9c-.42 0-.75.34-.75.76 0 .41.33.74.75.74.41 0 .74-.33.74-.74a.737.737 0 0 0-.74-.76z" fill="#000000" class="fill-505050"></path><path d="M45.36 2.33H4.9c-1.94 0-3.52 1.58-3.52 3.52V35.89c0 1.94 1.58 3.51 3.52 3.51h13.3v4.12h-4.68a.749.749 0 1 0 0 1.5h23.22a.749.749 0 1 0 0-1.5h-4.68V39.4l13.3-.01c1.94 0 3.52-1.58 3.52-3.51V5.85c0-1.94-1.58-3.52-3.52-3.52zM4.9 3.83h40.46c1.11 0 2.02.91 2.02 2.02v25.67h-2.19V6.77a.75.75 0 0 0-.75-.75H14.93c-.41 0-.75.34-.75.75s.34.75.75.75h28.76v24H6.57v-24h4.36c.42 0 .75-.34.75-.75s-.32-.74-.73-.75H5.82a.75.75 0 0 0-.75.75v24.75H2.88V5.85c0-1.12.91-2.02 2.02-2.02zM45.36 37.9H24.74a.75.75 0 0 0-.74.76c0 .41.33.75.74.75h5.82v4.11H19.7V39.4h1.11c.42 0 .75-.33.75-.74 0-.42-.33-.75-.75-.75h-.05l-.01-.01H4.9c-1.11 0-2.02-.9-2.02-2.01v-2.87H47.38v2.87c0 1.11-.91 2.01-2.02 2.01z" fill="#000000" class="fill-505050"></path><circle cx="12.93" cy="6.77" r=".75" fill="#000000" class="fill-505050"></circle><path d="M10.03 26.23c.15.15.34.22.53.22s.38-.07.53-.22l5.22-5.22 4.19 4.19c.28.28.78.28 1.06 0l5.98-5.98 4.27 4.27c.29.29.77.29 1.06 0l5.03-5.03v2.4c0 .41.34.75.75.75s.75-.34.75-.75v-4.21c0-.1-.02-.19-.06-.29a.782.782 0 0 0-.41-.41.717.717 0 0 0-.29-.06h-4.21c-.41 0-.75.34-.75.75s.34.75.75.75h2.4l-4.5 4.5-4.27-4.27a.774.774 0 0 0-1.06 0l-5.98 5.98-4.19-4.19a.774.774 0 0 0-1.06 0l-5.75 5.75c-.28.3-.28.77.01 1.07z" fill="#000000" class="fill-505050"></path></svg>