<svg viewBox="0 0 32 32" xmlns="http://www.w3.org/2000/svg"><g data-name="18. Bar Graphic"><path d="M17 32h-2a3 3 0 0 1-3-3V17a3 3 0 0 1 3-3h2a3 3 0 0 1 3 3v6a1 1 0 0 1-2 0v-6a1 1 0 0 0-1-1h-2a1 1 0 0 0-1 1v12a1 1 0 0 0 1 1h2a1 1 0 0 0 1-1v-2a1 1 0 0 1 2 0v2a3 3 0 0 1-3 3ZM7 32H5a3 3 0 0 1-3-3v-6a3 3 0 0 1 3-3h2a3 3 0 0 1 3 3v6a3 3 0 0 1-3 3ZM5 22a1 1 0 0 0-1 1v6a1 1 0 0 0 1 1h2a1 1 0 0 0 1-1v-6a1 1 0 0 0-1-1ZM27 32h-2a3 3 0 0 1-3-3V13a3 3 0 0 1 3-3h2a3 3 0 0 1 3 3v4a1 1 0 0 1-2 0v-4a1 1 0 0 0-1-1h-2a1 1 0 0 0-1 1v16a1 1 0 0 0 1 1h2a1 1 0 0 0 1-1v-8a1 1 0 0 1 2 0v8a3 3 0 0 1-3 3Z" fill="#50ed0c" class="fill-04009a"></path><path d="M6 16a3 3 0 1 1 3-3 3 3 0 0 1-3 3Zm0-4a1 1 0 1 0 1 1 1 1 0 0 0-1-1ZM16 10a3 3 0 1 1 3-3 3 3 0 0 1-3 3Zm0-4a1 1 0 1 0 1 1 1 1 0 0 0-1-1ZM26 6a3 3 0 1 1 3-3 3 3 0 0 1-3 3Zm0-4a1 1 0 1 0 1 1 1 1 0 0 0-1-1Z" fill="#77e2f2" class="fill-77acf1"></path><path d="M7.711 12.97a1 1 0 0 1-.511-1.858l6.58-3.94a1 1 0 0 1 1.02 1.716l-6.58 3.94a1 1 0 0 1-.509.142ZM17.85 7.26a1 1 0 0 1-.371-1.929l6.3-2.519a1 1 0 1 1 .742 1.857l-6.3 2.519a.987.987 0 0 1-.371.072Z" fill="#77e2f2" class="fill-77acf1"></path></g></svg>